<svg xmlns="http://www.w3.org/2000/svg" xmlns:xlink="http://www.w3.org/1999/xlink" width="500" zoomAndPan="magnify" viewBox="0 0 375 374.999991" height="500" preserveAspectRatio="xMidYMid meet" version="1.0"><defs><g/></defs><rect x="-37.5" width="450" fill="#ffffff" y="-37.499999" height="449.999989" fill-opacity="1"/><rect x="-37.5" width="450" fill="#ffd21d" y="-37.499999" height="449.999989" fill-opacity="1"/><g fill="#043bc5" fill-opacity="1"><g transform="translate(63.82812, 292.809655)"><g><path d="M 116.03125 1.25 L 99.984375 1.25 C 83.953125 1.25 68.664062 -2.96875 54.125 -11.40625 C 39.59375 -19.84375 27.898438 -31.492188 19.046875 -46.359375 C 10.191406 -61.222656 5.765625 -77.765625 5.765625 -95.984375 C 5.765625 -116.859375 10.734375 -134.601562 20.671875 -149.21875 C 30.609375 -163.84375 43.257812 -174.785156 58.625 -182.046875 C 74 -189.316406 89.789062 -192.953125 106 -192.953125 L 116.03125 -192.953125 Z M 242.328125 -95.734375 C 242.328125 -74.847656 237.351562 -57.09375 227.40625 -42.46875 C 217.46875 -27.851562 204.8125 -16.910156 189.4375 -9.640625 C 174.070312 -2.378906 158.289062 1.25 142.09375 1.25 L 132.0625 1.25 L 132.0625 -192.953125 L 148.09375 -192.953125 C 164.132812 -192.953125 179.421875 -188.734375 193.953125 -180.296875 C 208.492188 -171.859375 220.191406 -160.207031 229.046875 -145.34375 C 237.898438 -130.476562 242.328125 -113.941406 242.328125 -95.734375 Z M 242.328125 -95.734375 "/></g></g></g></svg>